<svg id="Warstwa_1" data-name="Warstwa 1" xmlns="http://www.w3.org/2000/svg" viewBox="0 0 2881.60788 1468.86946"><defs><style>.cls-1{fill:#fc7e00;}.cls-2{fill:#fb8a01;}.cls-3{fill:#fdfdfd;}.cls-4{fill:#fff;}</style></defs><title>LOGOostatnie</title><path class="cls-1" d="M385.36487,813.99884q-.64243-8.12567-1.28485-16.251V732H747.67389q155.81232,0,311.62457-.07593c8.29968-.00928,15.73621,1.18665,21.20691,8.08777q-.05988,22.00058-.11963,44.001c-.6914.67236-1.93152,1.29925-1.99182,2.02423-.83984,10.11047-1.51819,20.23431-2.236,30.35492-.40344,7.52661-1.24671,14.947-5.21533,21.61255-4.43042,1.52765-2.50244,5.26391-2.84986,8.21q-2.43969,7.89825-4.8789,15.79632c-4.8291,1.40845-2.751,5.32837-3.04785,8.385q-1.81532,4.80524-3.62977,9.61017-1.14276,2.3064-2.28735,4.61359-2.59479,6.69434-5.18884,13.38836c-4.2367,1.76252-5.03333,5.2334-4.61853,9.30567q-1.641,3.34781-3.28113,6.69543c-4.00915,1.181-4.53625,4.60523-5.1394,7.98059q-1.6366,3.00788-3.272,6.01551-1.43791,2.74566-2.87878,5.49225-1.7785,2.24632-3.55652,4.49237-2.181,2.92-4.36267,5.84057l-.36676.12036q-.75431,1.12509-1.5144,2.25159-3.23109,5.85471-6.46186,11.70917c-5.46887,1.1662-7.90021,4.60559-7.56671,10.11358-17.42743,19.04041-34.74463,38.18543-55.23175,54.11451-3.90259,3.0343-7.4602,6.5122-11.17639,9.785q-4.80643,2.38844-9.61365,4.77783-1.94952,1.69281-3.8988,3.38526-2.04757,1.09845-4.096,2.19787-3.21039,2.82-6.42029,5.63953-1.78536,1.11822-3.57184,2.23706-10.80669,6.02179-21.61309,12.04321-2.19333,1.012-4.38746,2.0249-7.03683,2.90351-14.073,5.8064c-2.79132.39111-6.27283-1.354-7.92829,2.55872-3.70581,4.08276-8.45758,5.55822-13.80816,5.53943q-3.08377.95087-6.16852,1.90234-7.19559,1.59192-14.39044,3.18384c-6.91364.19043-13.83881.3385-19.61951,4.98816-5.25122,4.18322-11.67658,3.152-17.6825,3.98095-6.46344-.25366-13.02166-.93139-18.31762,4.07044a60.8699,60.8699,0,0,1-7.78394,1.00647q-31.26379.1278-62.52807.006a60.58007,60.58007,0,0,1-7.78919-1.012c-.68463-.65894-1.32794-1.84-2.06171-1.89917-10.62347-.85669-21.25915-1.56287-31.8919-2.30518-6.14673-.50745-12.54633.16467-17.94129-3.84656-4.09228-3.75-9.055-4.43176-14.31677-4.059q-5.8926-2.02094-11.78467-4.04174c-3.19421-4.29554-7.72448-4.33216-12.405-3.88941q-1.78583-.88184-3.571-1.76318-4.05762-2.17456-8.11646-4.35-.93557-.35834-1.87072-.71643c-.2779-2.13611-.55634-4.27246-.68463-5.2572-5.21265-.777-9.35517-1.39441-13.49769-2.012q-3.90527-1.93854-7.80993-3.87659c-1.38867-4.09033-4.6333-4.45752-8.23682-4.10449q-2.893-1.44636-5.78534-2.89173c-.56885-3.65344-3.38153-3.18554-5.92041-3.22094q-4.038-2.56934-8.07525-5.13733-2.502-1.25775-5.00531-2.51844a195.02287,195.02287,0,0,1-37.81052-28.36779c-3.98209-3.88959-9.06241-6.69715-12.83713-10.74811-8.99487-9.65289-17.5105-19.75244-26.21942-29.67121q-1.61059-2.785-3.2218-5.57074-2.54316-2.77359-5.08594-5.547-1.16094-2.22986-2.32263-4.46-2.7464-3.01144-5.49262-6.02252-1.06847-1.98185-2.13742-3.96424-5.11395-7.39059-10.22689-14.78454c.7705-4.80207-1.97623-7.37806-5.84235-9.24634q-1.951-3.85392-3.90183-7.7077c.34354-3.65961-.01834-6.95966-4.23178-8.29462q-1.864-3.89841-3.72787-7.79669-1.03194-2.08668-2.06421-4.17371-2.604-6.13366-5.208-12.267c1.4625-4.02765-.11542-7.10119-3.05926-9.746-3.15992-3.45459-5.77878-7.1358-5.108-12.1947,1.66645-4.16632.2323-7.31787-3.21185-9.81146q-1.64913-5.96174-3.29822-11.92341c.184-5.75439.09336-11.43969-4.05889-16.10113q-.09482-1.56646-.18931-3.135Q386.5387,816.41632,385.36487,813.99884Z" transform="translate(-25.29813 -11.75781)"/><path class="cls-2" d="M1080.50537,740.01184c-5.4707-6.90112-12.90723-8.097-21.20691-8.08777q-155.812.17377-311.62457.07593H384.08v65.7478c-.78662-2.6911-2.2407-5.37805-2.25644-8.07342-.156-26.66413-1.24436-53.39984.35043-79.97016,1.07391-17.8927,3.39649-36.01831,9.057-53.35193,5.105-15.63287,9.25842-31.65563,15.5187-46.80938,5.93183-14.35864,13.49814-28.13849,21.37613-41.56836a431.07172,431.07172,0,0,1,24.20682-36.19892c13.94141-19.05084,29.58048-36.59127,48.60794-50.85131,8.19123-6.13886,15.95139-12.89957,24.43765-18.58655,11.23017-7.52582,22.97632-14.28214,34.50916-21.3555,4.50989-2.76605,8.78778-6.11426,13.62164-8.10248,8.17316-3.36182,16.72339-5.79874,25.08118-8.72131,15.5199-5.4271,30.88129-11.35272,46.56244-16.25977,13.17731-4.1235,26.69324-6.4545,40.58874-8.0459,24.61316-2.81884,49.14075-.89328,73.679-1.78717,18.35077-.66848,36.04089,3.091,53.77435,7.32645,29.00324,6.92694,56.91205,16.82126,83.09583,30.93173,14.46081,7.793,27.89782,17.52164,41.61688,26.64743,24.26892,16.14359,44.38452,37.08087,63.48737,58.63611,13.041,14.71515,24.93786,30.82446,33.8944,48.72174,3.69129,7.376,8.71387,14.10541,12.18348,21.56928,10.99035,23.64257,20.31494,47.947,25.45166,73.59857,2.45166,12.24316,3.06909,24.88446,5.96472,36.99945C1081.89063,715.05414,1081.39539,727.45056,1080.50537,740.01184Z" transform="translate(-25.29813 -11.75781)"/><path class="cls-2" d="M765.14368,141.51453c0,30.304.183,60.60986-.12519,90.91073-.07977,7.84142-.09887,16.30786-2.92755,23.37361-7.00317,17.49349-16.52441,27.20464-36.99774,25.16631-19.06647-1.89822-28.91992-14.3158-35.37378-30.34947a48.09218,48.09218,0,0,1-3.08966-17.43872q-.29379-90.41128.01117-180.82392c.05249-14.54966,5.10675-27.261,17.74994-35.61817,10.099-6.67545,21.59723-4.98429,32.80157-4.17129a44.90971,44.90971,0,0,1,7.73035,1.56844c7.05676,1.8001,12.67719,5.258,15.64868,12.44159,2.67475,6.46589,4.64874,12.8471,4.59638,20.03371-.23035,31.63429-.09943,63.27121-.09943,94.90718Z" transform="translate(-25.29813 -11.75781)"/><path class="cls-2" d="M287.4248,591.18243c-1.21862,16.76221-11.159,29.60321-26.91885,35.042-13.29924,4.58941-25.71287,3.08209-38.38844-2.2995-10.23706-4.34638-20.85848-7.84711-31.45438-11.27466-15.91426-5.14777-32.03663-9.65637-47.92378-14.88275-25.23672-8.30213-50.19416-17.49744-75.61844-25.1576-7.35546-2.21618-14.4393-4.56652-21.01353-8.27233-18.26958-10.29828-27.25121-32.92487-15.55149-51.66517,3.53063-5.6553,9.313-10.08261,14.62144-14.38455,3.26745-2.64795,7.68916-3.82184,11.41531-5.96576,5.05685-2.90954,9.861-2.33163,15.21062-.53q26.56068,8.94521,53.37109,17.14423c15.99066,4.90015,32.19919,9.09448,48.16166,14.08014,25.67575,8.01959,51.32686,16.14362,76.79268,24.79925,13.63605,4.63483,26.63935,11.0152,32.70578,25.39783C285.21036,578.84644,285.94351,585.17218,287.4248,591.18243Z" transform="translate(-25.29813 -11.75781)"/><path class="cls-2" d="M315.95935,141.54541c15.80667.543,25.72684,6.97488,33.55139,17.8116,11.39588,15.78284,23.372,31.14568,34.8501,46.8705,10.10574,13.84474,19.794,27.99345,29.80133,41.91109,10.77371,14.98353,21.75043,29.821,32.5499,44.78617q10.70914,14.84007,21.15762,29.8678c3.42368,4.89487,3.56616,10.52307,3.33746,16.243-.70019,17.511-14.67013,32.83612-31.39514,37.171-8.45788,2.1922-15.71655.47489-22.788-2.27206a47.22127,47.22127,0,0,1-21.537-16.89786c-15.50278-21.74808-31.33688-43.25958-46.93185-64.94241q-27.71178-38.52984-55.18546-77.2303c-3.61066-5.10192-5.96252-11.11753-9.72015-16.08783-7.72589-10.21926-5.45377-21.05229-1.45795-31.18514,4.13953-10.49725,10.24335-20.334,22.436-23.65368C309.02322,142.74051,313.5549,142.04318,315.95935,141.54541Z" transform="translate(-25.29813 -11.75781)"/><path class="cls-1" d="M404.07388,1259.97815c-12.22738,17.14819-24.20926,34.47888-36.77331,51.37659-7.66284,10.306-16.3775,19.82287-24.333,29.92-7.48694,9.50244-24.87689,12.9259-37.74585,7.389-18.15768-7.81226-28.57114-31.23047-22.765-50.28064,3.381-11.09314,9.44885-19.92322,17.13262-28.52893,9.17066-10.27088,16.60956-22.09851,24.69162-33.32862,12.88193-17.89953,25.83265-35.75305,38.44648-53.84069,7.35028-10.53992,14.55078-21.23584,21.01693-32.32874,9.831-16.86548,22.52814-29.99231,41.80848-35.50769,10.26684-2.937,19.58062-.88147,27.49755,6.27429,7.39045,6.67993,13.74344,13.75867,16.71058,24.03833,3.99533,13.84192,1.804,26.04-7.94751,35.74158-9.06028,9.01355-16.002,19.26489-22.90949,29.75867-6.51459,9.897-13.33887,19.59192-20.14944,29.28955-.69642.9917-2.2323,1.39367-3.37662,2.06811q-1.72558,3.74232-3.45532,7.48743-2.13757,2.23407-4.27442,4.46716C403.79767,1254.39124,404.00034,1257.22314,404.07388,1259.97815Z" transform="translate(-25.29813 -11.75781)"/><path class="cls-1" d="M286.15521,901.89429c3.59555,20.78265-16.02365,35.01251-30.27179,39.78656-16.47126,5.51886-33.14911,10.41845-49.65553,15.83593-17.44472,5.72553-34.69653,12.0528-52.21292,17.54175-15.29419,4.79261-30.88334,8.63581-46.2568,13.18689-9.43746,2.79376-18.65392,6.33087-28.0802,9.16657-9.373,2.81964-18.77642,6.89239-28.7042,1.80035-.56352-.28906-1.44771-.03375-1.93413-.38043-9.36141-6.67267-15.73719-16.07269-21.34393-25.67621-4.65217-7.96838-1.3624-16.76843,1.26427-25.01031,4.98368-15.63758,18.1714-22.39161,31.84665-27.46051,20.291-7.521,40.99734-13.9715,61.69359-20.33551,20.98313-6.45228,42.19618-12.15308,63.25558-18.36255,12.5927-3.713,24.98315-8.14453,37.65246-11.55494,10.08248-2.714,19.71965-7.09265,30.46849-7.51025,13.15377-.51105,20.6646,7.36823,27.09923,17.0296C285.537,886.7995,287.50555,894.42969,286.15521,901.89429Z" transform="translate(-25.29813 -11.75781)"/><path class="cls-2" d="M1138.02966,141.18927c4.822.88194,9.687,1.57719,14.45838,2.67853,19.43493,4.486,29.6455,36.26739,19.53222,54.91922a251.632,251.632,0,0,1-13.68872,21.70413q-13.66351,20.01137-27.76342,39.72382c-6.673,9.36816-13.61878,18.54168-20.42908,27.81216-8.77564,11.94586-17.49549,23.93289-26.31677,35.84491-9.20679,12.43249-18.55652,24.75909-27.74537,37.20471-5.74377,7.77973-14.811,10.98987-22.3601,16.23944-2.34375,1.62979-6.60279,1.60129-9.672.92063-28.10712-6.23365-41.23322-20.62741-37.45264-50.59479.73175-5.8002,4.381-12.30567,8.681-16.37735,11.99842-11.36139,19.59851-25.72284,28.98346-38.87082,10.54553-14.77383,21.28467-29.40962,31.952-44.09641,11.25061-15.48974,22.45239-31.01547,33.79626-46.43661,8.01148-10.89081,15.9347-21.86835,24.44629-32.36186C1120.38489,142.18336,1128.8656,140.69046,1138.02966,141.18927Z" transform="translate(-25.29813 -11.75781)"/><path class="cls-1" d="M1176.39111,1309.53406c.75806,17.82324-8.72607,29.04931-21.57959,37.71386-8.9021,6.001-28.7218,4.89368-39.87475-5.72a111.66746,111.66746,0,0,1-12.85791-15.05078c-14.60706-19.9635-29.00073-40.08349-43.43213-60.175-10.969-15.27136-21.79151-30.64819-32.83118-45.868-10.65167-14.68469-21.646-29.12219-32.19409-43.87976a41.106,41.106,0,0,1-8.03217-24.01562c-.20434-11.88709,5.6178-20.45057,13.04889-27.92017,6.4928-6.52661,14.98938-10.23169,24.63739-11.13672,14.9411-1.40173,25.72895,6.31275,34.29023,16.568,10.31665,12.35828,18.96643,26.10791,28.3413,39.25257,13.19593,18.50232,26.54419,36.89844,39.55079,55.533,12.64123,18.11071,24.92431,36.47119,37.38635,54.70727,2.97473,4.35291,6.12659,8.58679,9.03369,12.9834C1175.457,1297.93909,1177.42615,1303.82507,1176.39111,1309.53406Z" transform="translate(-25.29813 -11.75781)"/><path class="cls-1" d="M692.09619,1345.98926c0-32.98487.20239-65.97156-.09717-98.95374-.1242-13.67383,6.52961-23.53894,16.49158-31.34082,8.23755-6.45129,18.57636-5.45007,27.81812-3.27466,12.58355,2.962,23.40686,9.60389,27.26171,23.178,2.04792,7.21143,4.07087,14.75574,4.1106,22.1604.325,60.637.23273,121.27637.12775,181.9148a51.344,51.344,0,0,1-8.7746,28.95605,24.15994,24.15994,0,0,1-11.63263,8.73157c-10.80347,3.58386-22.24915,3.818-33.506,2.60779-7.43988-.79981-12.48651-6.13794-16.05145-12.27234a40.44084,40.44084,0,0,1-5.74585-20.754c.13183-33.65063.05719-67.30188.05719-100.953Z" transform="translate(-25.29813 -11.75781)"/><path class="cls-2" d="M661.98926,1092.05664c10.63275.74231,21.26843,1.44849,31.8919,2.30518.73377.0592,1.37708,1.24023,2.06171,1.89917-5.43756-.34974-10.87512-.68726-16.31091-1.05213-3.91577-.26257-7.859-.358-11.73126-.92737C665.86517,1093.9823,663.95569,1092.826,661.98926,1092.05664Z" transform="translate(-25.29813 -11.75781)"/><path class="cls-2" d="M1076.158,816.392c.71777-10.12061,1.39612-20.24445,2.236-30.35492.0603-.725,1.30042-1.35187,1.99182-2.02423C1082.33276,795.2442,1079.30359,805.82568,1076.158,816.392Z" transform="translate(-25.29813 -11.75781)"/><path class="cls-2" d="M810.04419,1088.20911c5.7807-4.64966,12.70587-4.79773,19.61951-4.98816A31.67236,31.67236,0,0,1,810.04419,1088.20911Z" transform="translate(-25.29813 -11.75781)"/><path class="cls-2" d="M577.801,1062.12122c4.14252.61755,8.285,1.235,13.49769,2.012.12829.98474.40673,3.12109.68463,5.2572Q584.89168,1065.75575,577.801,1062.12122Z" transform="translate(-25.29813 -11.75781)"/><path class="cls-2" d="M774.04407,1096.26062c5.296-5.002,11.85418-4.32422,18.31762-4.07056Q783.20248,1094.22583,774.04407,1096.26062Z" transform="translate(-25.29813 -11.75781)"/><path class="cls-2" d="M387.90125,821.97284c4.15225,4.66144,4.24288,10.34674,4.05889,16.10113Q389.93061,830.02329,387.90125,821.97284Z" transform="translate(-25.29813 -11.75781)"/><path class="cls-2" d="M629.7312,1084.15112c5.26172-.3728,10.22449.309,14.31677,4.059C638.53717,1089.46045,634.18329,1086.63281,629.7312,1084.15112Z" transform="translate(-25.29813 -11.75781)"/><path class="cls-2" d="M605.5415,1076.22c4.68055-.44275,9.21082-.40613,12.405,3.88941Q611.74348,1078.16442,605.5415,1076.22Z" transform="translate(-25.29813 -11.75781)"/><path class="cls-2" d="M1006.04138,968.025c-.33356-5.508,2.09778-8.94738,7.56665-10.11352Q1009.82434,962.9686,1006.04138,968.025Z" transform="translate(-25.29813 -11.75781)"/><path class="cls-2" d="M395.25836,849.99738c3.44415,2.49359,4.8783,5.64514,3.21182,9.81146Q396.86426,854.9029,395.25836,849.99738Z" transform="translate(-25.29813 -11.75781)"/><path class="cls-2" d="M425.77118,921.98926c3.86612,1.86828,6.61285,4.44427,5.84235,9.24634Q428.69129,926.61575,425.77118,921.98926Z" transform="translate(-25.29813 -11.75781)"/><path class="cls-2" d="M403.57822,872.00354c2.94384,2.64478,4.52176,5.71832,3.05926,9.746Q405.10787,876.87625,403.57822,872.00354Z" transform="translate(-25.29813 -11.75781)"/><path class="cls-2" d="M930.01953,1036.70227q4.807-2.38916,9.61365-4.77771Q934.82592,1034.31391,930.01953,1036.70227Z" transform="translate(-25.29813 -11.75781)"/><path class="cls-2" d="M417.63754,905.98694c4.21347,1.335,4.57535,4.635,4.23181,8.29462Q419.75321,910.134,417.63754,905.98694Z" transform="translate(-25.29813 -11.75781)"/><path class="cls-2" d="M561.75421,1054.14014c3.60352-.353,6.84815.01416,8.23682,4.10449Q565.87208,1056.192,561.75421,1054.14014Z" transform="translate(-25.29813 -11.75781)"/><path class="cls-2" d="M1068.09277,846.21454c.34742-2.94611-1.58056-6.68237,2.84986-8.21Q1069.5166,842.10983,1068.09277,846.21454Z" transform="translate(-25.29813 -11.75781)"/><path class="cls-2" d="M1044.44165,907.3136c-.41492-4.07227.38171-7.54315,4.61853-9.30567Q1046.75012,902.66111,1044.44165,907.3136Z" transform="translate(-25.29813 -11.75781)"/><path class="cls-2" d="M1036.021,921.98962c.60315-3.37536,1.13025-6.79962,5.13928-7.98065Q1038.59,917.99957,1036.021,921.98962Z" transform="translate(-25.29813 -11.75781)"/><path class="cls-2" d="M593.854,1070.10681q4.05854,2.1753,8.11646,4.35Q597.91157,1072.28131,593.854,1070.10681Z" transform="translate(-25.29813 -11.75781)"/><path class="cls-2" d="M864.03082,1072.59534c1.65546-3.91272,5.137-2.16761,7.92829-2.55872C870.26813,1073.8407,866.92023,1072.50769,864.03082,1072.59534Z" transform="translate(-25.29813 -11.75781)"/><path class="cls-2" d="M1060.16614,870.39581c.29675-3.05658-1.78137-6.9765,3.04773-8.385Q1061.68951,866.20361,1060.16614,870.39581Z" transform="translate(-25.29813 -11.75781)"/><path class="cls-2" d="M1021.95105,943.83032q2.18153-2.92044,4.36267-5.84057C1026.741,941.34235,1024.97266,943.05438,1021.95105,943.83032Z" transform="translate(-25.29813 -11.75781)"/><path class="cls-2" d="M844.05414,1080.03711q3.0845-.95142,6.16852-1.90234C848.92871,1081.24231,846.63513,1081.10583,844.05414,1080.03711Z" transform="translate(-25.29813 -11.75781)"/><path class="cls-2" d="M550.04846,1048.02747c2.53888.0354,5.35156-.4325,5.92041,3.22094Q553.00807,1049.6369,550.04846,1048.02747Z" transform="translate(-25.29813 -11.75781)"/><path class="cls-2" d="M411.92255,1249.50647q1.72869-3.74433,3.45529-7.48755Q413.64809,1245.764,411.92255,1249.50647Z" transform="translate(-25.29813 -11.75781)"/><path class="cls-2" d="M1029.87024,933.49738q1.44012-2.74632,2.87878-5.49225Q1031.30834,930.75171,1029.87024,933.49738Z" transform="translate(-25.29813 -11.75781)"/><path class="cls-2" d="M456.879,966.01385q1.611,2.78559,3.2218,5.57074Q458.48964,968.79884,456.879,966.01385Z" transform="translate(-25.29813 -11.75781)"/><path class="cls-2" d="M404.07382,1259.97815c-.07348-2.755-.27615-5.58691,3.57428-6.00452Q405.86013,1256.97675,404.07382,1259.97815Z" transform="translate(-25.29813 -11.75781)"/><path class="cls-2" d="M441.84042,946.02014q1.06884,1.9823,2.13742,3.96424Q442.90888,948.002,441.84042,946.02014Z" transform="translate(-25.29813 -11.75781)"/><path class="cls-2" d="M449.47046,956.0069q1.16152,2.23,2.32263,4.46Q450.63143,958.23672,449.47046,956.0069Z" transform="translate(-25.29813 -11.75781)"/><path class="cls-2" d="M411.84549,894.01654q1.03217,2.087,2.06418,4.17371Q412.87737,896.10321,411.84549,894.01654Z" transform="translate(-25.29813 -11.75781)"/><path class="cls-2" d="M1054.2489,884.61957q1.144-2.307,2.28748-4.61359Q1055.39179,882.313,1054.2489,884.61957Z" transform="translate(-25.29813 -11.75781)"/><path class="cls-2" d="M536.9679,1040.3717q2.503,1.26,5.00531,2.51844Q539.46988,1041.62945,536.9679,1040.3717Z" transform="translate(-25.29813 -11.75781)"/><path class="cls-2" d="M922.02478,1042.28552q2.04822-1.09918,4.096-2.19787Q924.07233,1041.187,922.02478,1042.28552Z" transform="translate(-25.29813 -11.75781)"/><path class="cls-2" d="M912.03271,1050.16211q1.78611-1.1186,3.57184-2.23694Q913.81808,1049.04412,912.03271,1050.16211Z" transform="translate(-25.29813 -11.75781)"/><path class="cls-2" d="M385.36487,813.99884q1.1737,2.41846,2.34707,4.83905Q386.5381,816.42045,385.36487,813.99884Z" transform="translate(-25.29813 -11.75781)"/><path class="cls-2" d="M886.0321,1064.23022q2.19389-1.01275,4.38746-2.0249Q888.2255,1063.21808,886.0321,1064.23022Z" transform="translate(-25.29813 -11.75781)"/><path class="cls-2" d="M1020.06982,946.20227q.7587-1.12619,1.51441-2.25159Q1020.82415,945.07715,1020.06982,946.20227Z" transform="translate(-25.29813 -11.75781)"/><path class="cls-3" d="M2645.58911,861.17468q52.91418-144.23611,105.93262-288.75671H2906.906q-146.79933,345.20609-293.00977,689.02685H2459.7041c1.51245-3.66455,2.72559-6.84948,4.12207-9.9519q49.36854-109.6908,98.88159-219.31677c2.646-5.84,3.148-10.6164.52881-16.8111q-91.34-216.03086-182.22314-432.25513c-1.37818-3.27343-2.61206-6.60766-4.22949-10.71661H2536.894q53.52027,144.73572,106.90674,289.11023Q2644.69507,861.33911,2645.58911,861.17468Z" transform="translate(-25.29813 -11.75781)"/><path class="cls-3" d="M2263.3877,458.76285V571.89563h93.58593V691.10254h-92.65625a68.02008,68.02008,0,0,0-.81225,7.2027q-.06153,88.988-.00806,177.976a101.69226,101.69226,0,0,0,.59766,11.97394c1.88916,15.8056,9.99658,24.77508,25.51635,27.83661a96.11488,96.11488,0,0,0,16.83545,1.76269c13.99366.24549,27.99488.08209,41.99292.08277,2.92139.00012,5.843,0,9.168,0v121.0946c-2.687.20923-5.24365.57642-7.80054.58118-23.99682.04406-47.9956.22912-71.9895-.035a216.1519,216.1519,0,0,1-61.99756-9.36963c-51.7041-16.03808-82.51025-50.73388-91.583-104.01782a299.57213,299.57213,0,0,1-4.11646-47.67529c-.47363-58.65491-.18823-117.316-.18823-175.97479V691.62134h-56.56567V571.98083h56.33227v-113.218Z" transform="translate(-25.29813 -11.75781)"/><path class="cls-3" d="M1779.36584,650.75952c-4.021.17981-6.95837.424-9.89575.4256-45.98767.02423-91.97607-.12128-137.96191.167-6.84705.04291-10.42188-1.9906-13.85779-8.184-23.62976-42.59436-60.90478-63.70087-108.80493-67.041a149.821,149.821,0,0,0-51.47461,4.931c-43.72766,12.36042-74.21167,40.489-90.93848,81.87854-21.7196,53.74353-21.915,108.884-.35595,162.69892,23.85485,59.54547,79.43847,94.59076,149.7362,87.08356,36.09729-3.85486,66.41944-18.7273,89.26807-47.28595,6.60461-8.255,11.81836-17.62275,17.89087-26.81507h156.19226a88.07252,88.07252,0,0,1-1.77283,8.878c-31.39343,101.33966-99.1095,164.42053-202.06433,188.27875-64.361,14.9148-128.74158,11.86279-190.52026-12.69153-94.17322-37.42969-151.2417-107.53021-172.43091-205.98407-13.94214-64.78143-10.73181-129.4259,13.65417-191.57293,36.84851-93.90778,105.75476-151.71811,203.93946-173.30964,64.16015-14.10928,128.06054-10.69351,189.383,14.12409,81.155,32.84384,133.27722,92.65961,158.27735,176.35235C1778.28613,644.89172,1778.60815,647.19037,1779.36584,650.75952Z" transform="translate(-25.29813 -11.75781)"/><path class="cls-4" d="M2002.26025,572.38269v466.587H1859.88989v-466.587Z" transform="translate(-25.29813 -11.75781)"/><path class="cls-3" d="M1931.48181,524.45c-16.29419-.60827-32.00842-3.30176-46.15845-11.55359-28.28613-16.49557-42.07324-41.2481-39.082-74.02963,2.92627-32.07117,21.16394-53.3226,50.66822-64.5339,21.49072-8.16629,43.76171-8.15561,65.67541-1.03608,35.58679,11.5618,56.14661,42.97165,53.35486,80.78534-2.42053,32.7851-29.32886,61.5376-63.68567,67.7854C1945.40015,523.11383,1938.40942,523.60864,1931.48181,524.45Z" transform="translate(-25.29813 -11.75781)"/></svg>