<svg id="Warstwa_1" data-name="Warstwa 1" xmlns="http://www.w3.org/2000/svg" viewBox="0 0 2879.56033 1468.4041"><defs><style>.cls-1{fill:#ef9302;}.cls-2{fill:#ec8a0c;}.cls-3{fill:#ea8416;}.cls-4{fill:#f29c03;}.cls-5{fill:#f7ad06;}.cls-6{fill:#f5a705;}.cls-7{fill:#e77d25;}.cls-8{fill:#eb8815;}.cls-9{fill:#e67a2a;}.cls-10{fill:#fefefe;}.cls-11{fill:#fdfdfd;}.cls-12{fill:#fff;}</style></defs><title>LOGObeztla2</title><path class="cls-1" d="M382.20718,755.99609c-.05737-16.27819-1.41589-32.67987.11448-48.80737,2.70373-28.49231,8.418-56.62006,18.89236-83.36188,8.17456-20.87024,16.95367-41.60919,30.099-60.06836,4.99176.08057,9.98309.231,14.9744.23145q292.61832.02517,585.23672.02466c17.5061,26.434,28.95166,55.68072,37.69031,85.827,4.73633,16.33905,8.87317,33.14478,9.20776,50.49958.12586,6.53076,1.189,13.04345,1.82471,19.56439-2.57007,1.42523-2.50025,2.78753.09729,4.08954q.08313,11.98717.16662,23.9743c-7.42065,8.295-17.07019,8.16553-27.23327,8.1579Q717.74249,755.8754,382.20718,755.99609Z" transform="translate(-25.67429 -12.15468)"/><path class="cls-2" d="M382.20721,755.99609q335.5352.002,671.07038.13117c10.16308.00763,19.81262.13714,27.2334-8.1579,1.02038,18.52423,2.3396,37.043-1.95313,55.40167-1.19311,5.10309-1.67334,10.36914-2.59375,15.54029-4.29236,24.1148-12.95129,46.84838-22.489,69.23571-4.62,10.84418-10.33545,21.22162-15.55481,31.81049-4.19715-.48859-8.395-1.367-12.59107-1.35718-4.25824.01-8.51416,1.335-12.77142,1.33667q-283.44581.10932-566.8916.05542c-2.997-.00012-5.99567-.20581-8.99057-.15094-3.8606.07068-7.71811.3075-11.577.47278-7.129-14.73108-14.43625-29.37927-21.34277-44.21387-9.03732-19.41137-12.89813-40.4707-18.55466-60.93261-2.07873-7.51972-2.79269-15.55689-3.08673-23.397C381.668,779.86377,382.13071,767.92267,382.20721,755.99609Z" transform="translate(-25.67429 -12.15468)"/><path class="cls-3" d="M425.09866,920.31427c3.85886-.16528,7.71637-.4021,11.577-.47278,2.9949-.05487,5.99356.15082,8.99057.15094q283.44581.01263,566.8916-.05542c4.25726-.00165,8.51318-1.32672,12.77142-1.33667,4.19605-.00982,8.39392.86859,12.59119,1.35718-10.60291,16.3092-20.276,33.33429-32.10608,48.69867-9.27667,12.04828-21.00513,22.26727-32.04327,32.88415-10.75385,10.34339-21.84375,20.3581-33.14569,30.09992-3.93689,3.39343-9.15186,5.25513-13.4289,8.312-12.6228,9.02161-25.2243,18.09509-39.53729,24.287-21.37878,9.24866-43.02826,17.631-66.09857,21.99646-15.12549,2.86206-30.02765,6.89233-45.06531,10.24a40.24052,40.24052,0,0,1-8.9378.75854c-25.97278-.16613-51.99567.502-77.90223-.923-23.30334-1.28174-46.05127-6.53845-68.33941-14.0354-23.665-7.96021-45.32532-19.98047-67.151-31.56909-20.10975-10.67774-39.304-23.04016-55.62149-39.34333-5.36072-5.356-12.02909-9.46075-17.0832-15.05572a535.23256,535.23256,0,0,1-55.44409-72.149C425.34921,923.106,425.38843,921.6059,425.09866,920.31427Z" transform="translate(-25.67429 -12.15468)"/><path class="cls-4" d="M1031.52417,564.01459q-292.61838-.00723-585.23672-.02466c-4.99131-.00043-9.98264-.15088-14.97443-.23145,4.89017-8.19079,9.13653-16.86077,14.80139-24.47546,13.072-17.57123,26.98837-34.52112,43.42419-49.12982,14.31192-12.721,29.12113-24.82138,45.73539-34.55316,11.3966-6.6756,22.342-14.15592,33.94818-20.42688,7.14056-3.85816,15.07263-6.32264,22.77752-9.05078,17.67011-6.2566,35.28943-12.70655,53.17835-18.27857a214.994,214.994,0,0,1,40.572-8.018c28.2583-3.12577,56.45856-1.55774,84.64758-1.49637,13.35816.029,26.85211,3.08517,40.02967,5.94458,22.19421,4.81582,43.49853,12.81512,64.47662,21.30185,16.2019,6.55447,30.91089,16.23645,45.82025,25.48947,30.48334,18.91858,56.03247,43.36963,79.99121,69.54236,9.74982,10.65075,17.3728,23.25738,25.85608,35.05133C1028.45459,558.2771,1029.88525,561.22083,1031.52417,564.01459Z" transform="translate(-25.67429 -12.15468)"/><path class="cls-4" d="M286.3002,590.60248c-.06836,17.3609-10.00857,30.16235-25.78061,35.65533-13.317,4.638-25.72111,3.04633-38.3938-2.29974-10.25056-4.32422-20.86618-7.84119-31.4642-11.27-15.91959-5.15045-32.04658-9.66412-47.939-14.89349-25.24464-8.30677-50.21912-17.47437-75.64442-25.16535-6.67917-2.02045-13.33076-3.91632-19.29719-7.25714-13.48039-7.54828-22.09757-18.37122-22.10672-34.859-.009-16.256,8.67587-26.47647,21.967-33.8623,2.89011-1.60608,6.12457-2.62744,8.90862-4.38132,4.34422-2.73666,8.912-2.73908,13.43316-1.34686,16.60186,5.1123,33.11172,10.52255,49.6976,15.68777,17.54563,5.46411,35.17649,10.65607,52.70169,16.18378C198.35713,530.987,224.35,539.13757,250.16806,547.804c8.71094,2.92407,17.25336,6.64849,24.06613,13.40386C282.71014,569.61218,287.47415,579.3316,286.3002,590.60248Z" transform="translate(-25.67429 -12.15468)"/><path class="cls-5" d="M765.27759,142.39055q0,47.987-.01892,95.97392a49.96671,49.96671,0,0,1-12.3736,33.62988c-6.78821,7.71116-16.294,10.34742-26.79016,9.37668-19.84961-1.83578-30.29779-14.58127-36.73608-31.62018a47.94984,47.94984,0,0,1-2.84357-16.48925q-.26972-90.4744.0108-180.94987c.05335-14.57084,5.14459-27.36474,17.92151-35.50625a30.21013,30.21013,0,0,1,14.77564-4.61586,136.85367,136.85367,0,0,1,26.64129,2.08661,18.79562,18.79562,0,0,1,14.36182,11.18124c2.98474,6.69986,5.15838,13.38737,5.1,20.96009-.24645,31.98937-.10443,63.98172-.10443,95.973Z" transform="translate(-25.67429 -12.15468)"/><path class="cls-6" d="M317.00638,141.06119c14.20321.49656,24.4834,6.95959,32.47464,18.15944,8.6188,12.07936,17.66638,23.85238,26.49844,35.7801,7.8396,10.58742,15.70426,21.15723,23.443,31.81818q17.41517,23.99151,34.65226,48.112c7.07254,9.91357,13.93292,19.9783,20.92132,29.95218,3.4032,4.85708,6.60712,9.88922,10.38455,14.441,7.14051,8.6044,6.02433,17.71307,4.3823,28.02334-1.81067,11.36936-9.46436,17.52988-17.065,23.32758a36.29748,36.29748,0,0,1-20.03022,6.97223c-6.84.14557-14.15472-2.84717-20.56048-5.92392-9.77378-4.6944-15.98682-13.37039-22.02912-22.24356C379.51614,333.96939,368.34885,318.868,357.31,303.68634c-12.00644-16.51242-24.25714-32.84778-36.20944-49.39888q-13.59879-18.83112-26.6778-38.03551c-3.89893-5.70947-6.7247-12.19818-10.93527-17.63839-7.94577-10.26615-5.163-21.07535-1.33258-31.17537,4.01379-10.58358,10.49881-20.08483,22.46557-23.60616C308.67026,142.64037,312.87335,141.96986,317.00638,141.06119Z" transform="translate(-25.67429 -12.15468)"/><path class="cls-7" d="M392.08484,1138.29236c8.628-11.38025,19.43829-19.69568,33.4-23.42029,10.6175-2.83252,19.96659-.70032,28.37287,6.75635,11.23416,9.96533,18.02234,21.69055,17.69751,37.14a30.31458,30.31458,0,0,1-9.02622,21.43225c-8.61648,8.4469-15.42679,18.016-22.06921,27.95423-12.08054,18.07483-24.68366,35.80273-37.1966,53.58569-12.88848,18.31653-25.66336,36.72363-39.01815,54.697a267.30049,267.30049,0,0,1-21.40049,24.72229c-10.35626,10.85755-23.6246,13.16919-37.69546,7.35547-18.156-7.50159-28.43555-31.288-22.57718-50.29468,3.42432-11.10986,9.48563-19.90393,17.15558-28.5177,9.16055-10.28784,16.54016-22.16711,24.63116-33.40027q19.3461-26.85918,38.58463-53.79565c4.58349-6.44836,8.768-13.17908,13.26687-19.68945,1.66983-2.41663,3.71842-4.57141,5.59351-6.84546q1.055-2.09362,2.1116-4.18738,2.49513-3.89685,4.989-7.79333Q390.49312,1141.14215,392.08484,1138.29236Z" transform="translate(-25.67429 -12.15468)"/><path class="cls-8" d="M286.30621,902.7099c3.50421,20.05548-16.45471,34.36841-30.40167,38.98779-16.18092,5.35926-32.58343,10.04785-48.77916,15.36444-17.759,5.82965-35.28795,12.37336-53.11137,17.98944-15.28705,4.81684-30.89414,8.60828-46.271,13.15326-9.43887,2.78992-18.65408,6.33136-28.074,9.19178-9.04182,2.74554-17.80383,6.26434-27.79582,2.11139-9.47885-3.93976-25.906-23.74421-25.89261-33.93726.02367-18.02136,7.08557-32.20612,24.14616-39.75818,10.798-4.77978,21.93551-8.84393,33.08267-12.76929,12.06938-4.25018,24.26535-8.16992,36.51562-11.87133,24.16608-7.3017,48.42811-14.2854,72.61144-21.53083,17.58357-5.26806,35.0441-10.95361,52.67246-16.06329,14.04927-4.0722,28.53157,2.72729,36.07362,16.31409C286.31647,889.3208,286.3165,889.3208,286.30621,902.7099Z" transform="translate(-25.67429 -12.15468)"/><path class="cls-6" d="M1137.23438,141.01767c5.14257.92781,10.32958,1.66055,15.41992,2.81807,19.26062,4.37978,29.57092,36.19307,19.47168,54.95366a245.99292,245.99292,0,0,1-13.66065,21.70141q-13.90246,20.39319-28.2384,40.49012c-6.4773,9.10379-13.26,17.99011-19.89453,26.98224q-13.1933,17.88143-26.37488,35.77157c-9.201,12.42276-18.467,24.79746-27.67371,37.216-5.94531,8.01932-14.78906,12.65149-23.21948,16.54728-8.79578,4.06457-18.2456-.65924-26.41144-5.01563-20.65643-11.02005-22.18628-27.07867-20.18579-44.359a29.49642,29.49642,0,0,1,8.35407-16.51672c12.11688-11.65973,20.06213-26.14621,29.53149-39.62833,10.23718-14.57544,20.8888-28.86027,31.391-43.24907q16.92261-23.185,33.91236-46.32063c8.20105-11.13965,16.02185-22.61143,24.934-33.15616C1120.13306,142.69382,1128.17505,140.01752,1137.23438,141.01767Z" transform="translate(-25.67429 -12.15468)"/><path class="cls-7" d="M1176.27368,1309.91833c.963,17.76087-8.97082,28.684-21.71,37.36707-8.56763,5.83972-28.60339,4.839-39.82336-5.98291a114.62524,114.62524,0,0,1-12.84534-15.06226c-14.555-19.97741-28.86218-40.13549-43.27673-60.21545-10.97022-15.282-21.90686-30.58874-32.96106-45.80994-10.45618-14.398-20.93488-28.782-31.6167-43.01233-6.963-9.27624-9.21845-19.53137-8.05811-30.90246.8711-8.5365,6.18457-14.80286,11.43012-20.407a38.54074,38.54074,0,0,1,28.10138-12.39063c14.83813-.33374,25.152,7.62988,33.4248,18.25427,11.72083,15.05225,22.51074,30.83448,33.5603,46.40271,8.57691,12.08435,16.91565,24.33789,25.40931,36.48169,10.38989,14.85486,20.88049,29.63977,31.234,44.5199q11.29194,16.22827,22.32117,32.63843C1175.26453,1297.45483,1177.47705,1303.63342,1176.27368,1309.91833Z" transform="translate(-25.67429 -12.15468)"/><path class="cls-9" d="M692.11371,1345.69629c0-32.97156.1828-65.94446-.08777-98.91382-.11224-13.6781,6.6048-23.61035,16.66656-31.22681,8.209-6.214,18.54926-5.24633,27.86542-3.05944,12.71942,2.98571,23.14649,10.07556,27.156,23.353,2.16357,7.1648,3.92767,14.78186,3.96515,22.20447q.45794,90.91882.07708,181.84131a49.24759,49.24759,0,0,1-8.37494,28.07,26.55277,26.55277,0,0,1-12.25091,9.41638c-10.42841,3.66247-21.582,3.56482-32.51618,2.62573-7.923-.6803-13.08282-6.15063-16.89514-12.6062a39.903,39.903,0,0,1-5.5852-20.79212c.11236-33.6372.04889-67.2749.04889-100.91247Z" transform="translate(-25.67429 -12.15468)"/><path class="cls-9" d="M392.08484,1138.29236q-1.591,2.84967-3.18054,5.6991Q390.49594,1141.1416,392.08484,1138.29236Z" transform="translate(-25.67429 -12.15468)"/><path class="cls-2" d="M1080.34436,723.99506c-2.59766-1.302-2.66748-2.66431-.09741-4.08954Q1080.29583,721.95026,1080.34436,723.99506Z" transform="translate(-25.67429 -12.15468)"/><path class="cls-9" d="M383.91528,1151.78479q-1.05624,2.09381-2.11163,4.18738Q382.86027,1153.87817,383.91528,1151.78479Z" transform="translate(-25.67429 -12.15468)"/><path class="cls-10" d="M2376.79248,572.248h160.04517q53.43273,144.50409,106.84253,288.94482.90674.09183,1.81372.18378,53.06433-144.59509,106.1228-289.17377h153.61792c-.82324,7.224-282.07349,671.01691-291.9729,689.085H2459.89551c1.62988-4.09546,2.9248-7.75464,4.51343-11.28174q49.192-109.22386,98.58667-218.35632c2.57275-5.66211,2.82031-10.16217.39062-15.91455q-91.27111-216.06345-182.19629-432.27295C2379.79712,580.15485,2378.5647,576.77991,2376.79248,572.248Z" transform="translate(-25.67429 -12.15468)"/><path class="cls-11" d="M2357.85889,917.93372v121.03784c-2.68213.23132-5.22046.63562-7.75928.64062-24.33008.04749-48.66333.25733-72.9895-.04248a213.59236,213.59236,0,0,1-61.9729-9.54516c-51.1958-16.15564-81.78638-50.70026-90.8628-103.54816a297.08639,297.08639,0,0,1-4.15405-47.67249c-.47778-58.65515-.18994-117.31646-.18994-175.97546V691.80408h-56.44067V572.18689h56.00366V459.84564c7.58764-2.13244,130.51343-2.65091,143.6897-.69888v112.542h93.71826V691.251h-93.42774v8.7641q0,87.48834.07642,174.9765a98.61685,98.61685,0,0,0,1.77759,18.81286c2.38208,12.04364,10.3623,19.25013,22.04956,21.82465a106.49812,106.49812,0,0,0,20.78418,2.206C2324.42065,918.14355,2340.6897,917.93372,2357.85889,917.93372Z" transform="translate(-25.67429 -12.15468)"/><path class="cls-11" d="M1778.60535,650.81586H1622.10193c-1.67847-3.07672-3.20447-6.00708-4.84924-8.86939-20.95313-36.46112-52.44873-57.65289-93.79993-64.18866-28.192-4.45593-55.948-2.25549-82.35864,8.87036-38.78113,16.337-64.67945,45.62256-78.146,84.85608-17.08423,49.77338-17.3562,100.44922,1.34546,149.78028,18.375,48.46923,53.16748,79.77008,105.05334,89.82251a150.04693,150.04693,0,0,0,75.03614-4.17652c32.24536-10.27112,56.57751-30.37225,73.148-59.871,1.6112-2.86829,3.15722-5.77332,4.54089-8.30835h157.08264c-.67212,3.32825-1.00354,6.24689-1.85571,9.00458-31.09107,100.60785-98.33887,163.48938-200.26831,187.71106-64.92188,15.42761-130.02027,12.43445-192.46485-12.46045-94.13537-37.529-151.1322-107.667-172.23877-206.14612-13.88806-64.79865-10.646-129.43842,13.79065-191.55933,36.928-93.87561,105.9032-151.63177,204.11365-173.09539,65.92456-14.40763,131.40711-10.48526,193.97913,16.1437,78.72863,33.50473,129.21924,92.77475,153.4862,174.62021a46.78009,46.78009,0,0,1,1.12842,4.86566A15.99732,15.99732,0,0,1,1778.60535,650.81586Z" transform="translate(-25.67429 -12.15468)"/><path class="cls-12" d="M1859.76575,572.24115h142.28467v466.93634H1859.76575Z" transform="translate(-25.67429 -12.15468)"/><path class="cls-11" d="M1931.27014,524.465c-16.28613-.6966-31.99084-3.37818-46.13232-11.67359-28.26074-16.57782-41.95569-41.37591-38.877-74.13681,3.01246-32.05478,21.31568-53.22644,50.84766-64.40115,21.18518-8.01633,43.14551-7.998,64.74915-1.24777,35.60546,11.12527,56.486,42.43252,54.13891,80.29345-2.056,33.16468-29.18652,62.37278-63.954,68.599C1945.18518,523.126,1938.19763,523.62811,1931.27014,524.465Z" transform="translate(-25.67429 -12.15468)"/></svg>